<mxfile host="65bd71144e">
    <diagram name="페이지-1" id="HG2QBweDEZUEOKL4nY7x">
        <mxGraphModel dx="967" dy="596" grid="1" gridSize="10" guides="1" tooltips="1" connect="1" arrows="1" fold="1" page="1" pageScale="1" pageWidth="827" pageHeight="1169" math="1" shadow="0">
            <root>
                <mxCell id="0"/>
                <mxCell id="1" parent="0"/>
                <mxCell id="N9SkhUXvSTuKwesoVMct-8" value="FCN" style="edgeStyle=orthogonalEdgeStyle;rounded=0;orthogonalLoop=1;jettySize=auto;html=1;labelPosition=center;verticalLabelPosition=top;align=center;verticalAlign=bottom;" parent="1" source="N9SkhUXvSTuKwesoVMct-4" target="N9SkhUXvSTuKwesoVMct-7" edge="1">
                    <mxGeometry relative="1" as="geometry"/>
                </mxCell>
                <mxCell id="N9SkhUXvSTuKwesoVMct-4" value="&lt;br&gt;Input &lt;br style=&quot;font-size: 14px;&quot;&gt;&lt;b&gt;&lt;br&gt;$$\bf X$$&lt;br&gt;&lt;/b&gt;" style="rounded=0;whiteSpace=wrap;html=1;fontSize=14;fillColor=#f5f5f5;fontColor=#333333;strokeColor=#666666;" parent="1" vertex="1">
                    <mxGeometry x="108" y="280" width="40" height="160" as="geometry"/>
                </mxCell>
                <mxCell id="N9SkhUXvSTuKwesoVMct-10" value="" style="edgeStyle=orthogonalEdgeStyle;rounded=0;orthogonalLoop=1;jettySize=auto;html=1;" parent="1" source="N9SkhUXvSTuKwesoVMct-42" target="N9SkhUXvSTuKwesoVMct-9" edge="1">
                    <mxGeometry relative="1" as="geometry"/>
                </mxCell>
                <mxCell id="N9SkhUXvSTuKwesoVMct-32" value="&lt;div style=&quot;font-size: 12px;&quot;&gt;Another Encoder&lt;/div&gt;" style="edgeStyle=orthogonalEdgeStyle;rounded=0;orthogonalLoop=1;jettySize=auto;html=1;exitX=0.5;exitY=1;exitDx=0;exitDy=0;entryX=0.5;entryY=0;entryDx=0;entryDy=0;align=center;labelPosition=center;verticalLabelPosition=middle;verticalAlign=middle;fontSize=12;" parent="1" source="N9SkhUXvSTuKwesoVMct-9" target="N9SkhUXvSTuKwesoVMct-31" edge="1">
                    <mxGeometry x="0.0087" relative="1" as="geometry">
                        <Array as="points">
                            <mxPoint x="428" y="440"/>
                            <mxPoint x="428" y="440"/>
                        </Array>
                        <mxPoint as="offset"/>
                    </mxGeometry>
                </mxCell>
                <mxCell id="N9SkhUXvSTuKwesoVMct-7" value="&lt;font style=&quot;font-size: 13px;&quot;&gt;After Hidden Layer&lt;/font&gt;&lt;br&gt;$$ReLU(XW_1)W_2$$" style="whiteSpace=wrap;html=1;rounded=0;fontSize=10;" parent="1" vertex="1">
                    <mxGeometry x="228" y="280" width="100" height="160" as="geometry"/>
                </mxCell>
                <mxCell id="N9SkhUXvSTuKwesoVMct-12" value="" style="edgeStyle=orthogonalEdgeStyle;rounded=0;orthogonalLoop=1;jettySize=auto;html=1;" parent="1" source="N9SkhUXvSTuKwesoVMct-9" target="N9SkhUXvSTuKwesoVMct-11" edge="1">
                    <mxGeometry relative="1" as="geometry"/>
                </mxCell>
                <mxCell id="N9SkhUXvSTuKwesoVMct-13" value="" style="edgeStyle=orthogonalEdgeStyle;rounded=0;orthogonalLoop=1;jettySize=auto;html=1;" parent="1" source="N9SkhUXvSTuKwesoVMct-9" target="N9SkhUXvSTuKwesoVMct-11" edge="1">
                    <mxGeometry relative="1" as="geometry"/>
                </mxCell>
                <mxCell id="N9SkhUXvSTuKwesoVMct-9" value="&lt;span style=&quot;font-size: 11px;&quot;&gt;$$\bf (I- A^T)Z_{in}$$&lt;/span&gt;" style="whiteSpace=wrap;html=1;rounded=0;fontSize=11;fontStyle=1" parent="1" vertex="1">
                    <mxGeometry x="388" y="330" width="80" height="60" as="geometry"/>
                </mxCell>
                <mxCell id="N9SkhUXvSTuKwesoVMct-11" value="$$\mu$$" style="ellipse;whiteSpace=wrap;html=1;rounded=0;fillColor=#dae8fc;strokeColor=#6c8ebf;" parent="1" vertex="1">
                    <mxGeometry x="548" y="320" width="40" height="40" as="geometry"/>
                </mxCell>
                <mxCell id="N9SkhUXvSTuKwesoVMct-22" value="" style="edgeStyle=orthogonalEdgeStyle;rounded=0;orthogonalLoop=1;jettySize=auto;html=1;" parent="1" source="N9SkhUXvSTuKwesoVMct-14" target="N9SkhUXvSTuKwesoVMct-21" edge="1">
                    <mxGeometry relative="1" as="geometry"/>
                </mxCell>
                <mxCell id="N9SkhUXvSTuKwesoVMct-14" value="$$\sigma$$" style="ellipse;whiteSpace=wrap;html=1;rounded=0;fillColor=#dae8fc;strokeColor=#6c8ebf;" parent="1" vertex="1">
                    <mxGeometry x="548" y="360" width="40" height="40" as="geometry"/>
                </mxCell>
                <mxCell id="N9SkhUXvSTuKwesoVMct-18" value="Reparametrization" style="edgeStyle=orthogonalEdgeStyle;rounded=0;orthogonalLoop=1;jettySize=auto;html=1;horizontal=1;labelPosition=center;verticalLabelPosition=middle;align=center;verticalAlign=middle;fontSize=12;" parent="1" source="N9SkhUXvSTuKwesoVMct-21" target="N9SkhUXvSTuKwesoVMct-17" edge="1">
                    <mxGeometry relative="1" as="geometry"/>
                </mxCell>
                <mxCell id="N9SkhUXvSTuKwesoVMct-29" value="IAF" style="edgeStyle=orthogonalEdgeStyle;rounded=0;orthogonalLoop=1;jettySize=auto;html=1;labelPosition=center;verticalLabelPosition=bottom;align=center;verticalAlign=top;fontSize=12;" parent="1" source="N9SkhUXvSTuKwesoVMct-17" target="N9SkhUXvSTuKwesoVMct-28" edge="1">
                    <mxGeometry relative="1" as="geometry"/>
                </mxCell>
                <mxCell id="N9SkhUXvSTuKwesoVMct-17" value="$$ \bf{Z_0} \sim N(\mu, \sigma^2I)$$" style="whiteSpace=wrap;html=1;fontStyle=1;fontSize=13;" parent="1" vertex="1">
                    <mxGeometry x="598" y="440" width="120" height="40" as="geometry"/>
                </mxCell>
                <mxCell id="N9SkhUXvSTuKwesoVMct-21" value="" style="shape=waypoint;sketch=0;size=6;pointerEvents=1;points=[];fillColor=default;resizable=0;rotatable=0;perimeter=centerPerimeter;snapToPoint=1;rounded=0;" parent="1" vertex="1">
                    <mxGeometry x="648" y="350" width="20" height="20" as="geometry"/>
                </mxCell>
                <mxCell id="N9SkhUXvSTuKwesoVMct-24" style="edgeStyle=orthogonalEdgeStyle;rounded=0;orthogonalLoop=1;jettySize=auto;html=1;entryX=0.65;entryY=0.8;entryDx=0;entryDy=0;entryPerimeter=0;" parent="1" source="N9SkhUXvSTuKwesoVMct-11" target="N9SkhUXvSTuKwesoVMct-21" edge="1">
                    <mxGeometry relative="1" as="geometry"/>
                </mxCell>
                <mxCell id="N9SkhUXvSTuKwesoVMct-46" value="" style="edgeStyle=orthogonalEdgeStyle;rounded=0;orthogonalLoop=1;jettySize=auto;html=1;entryX=1;entryY=0.5;entryDx=0;entryDy=0;" parent="1" source="N9SkhUXvSTuKwesoVMct-28" target="N9SkhUXvSTuKwesoVMct-45" edge="1">
                    <mxGeometry relative="1" as="geometry"/>
                </mxCell>
                <mxCell id="N9SkhUXvSTuKwesoVMct-28" value="&lt;span style=&quot;font-size: 14px;&quot;&gt;$$\bf Z_1$$&lt;/span&gt;" style="whiteSpace=wrap;html=1;fontStyle=0;fontSize=14;horizontal=1;" parent="1" vertex="1">
                    <mxGeometry x="598" y="580" width="120" height="60" as="geometry"/>
                </mxCell>
                <mxCell id="N9SkhUXvSTuKwesoVMct-35" value="Lower Triangular with Diagonal ones" style="edgeStyle=orthogonalEdgeStyle;rounded=0;orthogonalLoop=1;jettySize=auto;html=1;labelPosition=center;verticalLabelPosition=top;align=center;verticalAlign=bottom;" parent="1" source="N9SkhUXvSTuKwesoVMct-31" target="N9SkhUXvSTuKwesoVMct-34" edge="1">
                    <mxGeometry relative="1" as="geometry"/>
                </mxCell>
                <mxCell id="N9SkhUXvSTuKwesoVMct-31" value="$$\bf L_X$$" style="ellipse;whiteSpace=wrap;html=1;rounded=0;fillColor=#d5e8d4;strokeColor=#82b366;fontStyle=1" parent="1" vertex="1">
                    <mxGeometry x="398" y="490" width="60" height="60" as="geometry"/>
                </mxCell>
                <mxCell id="N9SkhUXvSTuKwesoVMct-34" value="" style="shape=waypoint;sketch=0;size=6;pointerEvents=1;points=[];fillColor=default;resizable=0;rotatable=0;perimeter=centerPerimeter;snapToPoint=1;rounded=0;" parent="1" vertex="1">
                    <mxGeometry x="648" y="510" width="20" height="20" as="geometry"/>
                </mxCell>
                <mxCell id="N9SkhUXvSTuKwesoVMct-43" value="" style="edgeStyle=orthogonalEdgeStyle;rounded=0;orthogonalLoop=1;jettySize=auto;html=1;" parent="1" source="N9SkhUXvSTuKwesoVMct-36" target="N9SkhUXvSTuKwesoVMct-42" edge="1">
                    <mxGeometry relative="1" as="geometry"/>
                </mxCell>
                <mxCell id="N9SkhUXvSTuKwesoVMct-36" value="Adjacency&lt;br&gt;&lt;b&gt;&lt;i&gt;A&lt;/i&gt;&lt;/b&gt;" style="ellipse;whiteSpace=wrap;html=1;fillColor=#d5e8d4;strokeColor=#82b366;" parent="1" vertex="1">
                    <mxGeometry x="323" y="210" width="70" height="70" as="geometry"/>
                </mxCell>
                <mxCell id="N9SkhUXvSTuKwesoVMct-44" value="" style="edgeStyle=orthogonalEdgeStyle;rounded=0;orthogonalLoop=1;jettySize=auto;html=1;" parent="1" source="N9SkhUXvSTuKwesoVMct-7" target="N9SkhUXvSTuKwesoVMct-42" edge="1">
                    <mxGeometry relative="1" as="geometry">
                        <mxPoint x="328" y="360" as="sourcePoint"/>
                        <mxPoint x="388" y="360" as="targetPoint"/>
                    </mxGeometry>
                </mxCell>
                <mxCell id="N9SkhUXvSTuKwesoVMct-42" value="" style="shape=waypoint;sketch=0;size=6;pointerEvents=1;points=[];fillColor=default;resizable=0;rotatable=0;perimeter=centerPerimeter;snapToPoint=1;" parent="1" vertex="1">
                    <mxGeometry x="348" y="350" width="20" height="20" as="geometry"/>
                </mxCell>
                <mxCell id="N9SkhUXvSTuKwesoVMct-50" value="FCN" style="edgeStyle=orthogonalEdgeStyle;rounded=0;orthogonalLoop=1;jettySize=auto;html=1;labelPosition=center;verticalLabelPosition=top;align=center;verticalAlign=bottom;" parent="1" source="N9SkhUXvSTuKwesoVMct-45" target="N9SkhUXvSTuKwesoVMct-49" edge="1">
                    <mxGeometry relative="1" as="geometry"/>
                </mxCell>
                <mxCell id="N9SkhUXvSTuKwesoVMct-45" value="$$\bf (I-A^T)Z_{1}$$" style="whiteSpace=wrap;html=1;fontSize=14;fontStyle=1" parent="1" vertex="1">
                    <mxGeometry x="418" y="580" width="100" height="60" as="geometry"/>
                </mxCell>
                <mxCell id="N9SkhUXvSTuKwesoVMct-48" style="edgeStyle=orthogonalEdgeStyle;rounded=0;orthogonalLoop=1;jettySize=auto;html=1;exitX=0.5;exitY=1;exitDx=0;exitDy=0;" parent="1" source="N9SkhUXvSTuKwesoVMct-28" target="N9SkhUXvSTuKwesoVMct-28" edge="1">
                    <mxGeometry relative="1" as="geometry"/>
                </mxCell>
                <mxCell id="N9SkhUXvSTuKwesoVMct-49" value="&lt;br&gt;Output&lt;br&gt;$$\bf X'$$" style="whiteSpace=wrap;html=1;fontSize=14;align=center;labelPosition=center;verticalLabelPosition=middle;verticalAlign=middle;horizontal=1;fillColor=#f5f5f5;fontColor=#333333;strokeColor=#666666;" parent="1" vertex="1">
                    <mxGeometry x="248" y="580" width="100" height="60" as="geometry"/>
                </mxCell>
                <mxCell id="61NKcQRrdRYyib6HNdq7-3" value="" style="group" parent="1" connectable="0" vertex="1">
                    <mxGeometry x="462" y="336" width="50" height="30" as="geometry"/>
                </mxCell>
                <mxCell id="N9SkhUXvSTuKwesoVMct-26" style="edgeStyle=orthogonalEdgeStyle;rounded=0;orthogonalLoop=1;jettySize=auto;html=1;entryX=0;entryY=0.5;entryDx=0;entryDy=0;" parent="61NKcQRrdRYyib6HNdq7-3" source="N9SkhUXvSTuKwesoVMct-9" target="N9SkhUXvSTuKwesoVMct-14" edge="1">
                    <mxGeometry relative="1" as="geometry"/>
                </mxCell>
                <mxCell id="61NKcQRrdRYyib6HNdq7-1" value="MLP" style="text;html=1;align=center;verticalAlign=middle;resizable=0;points=[];autosize=1;strokeColor=none;fillColor=none;fontSize=12;" parent="61NKcQRrdRYyib6HNdq7-3" vertex="1">
                    <mxGeometry width="50" height="30" as="geometry"/>
                </mxCell>
                <mxCell id="61NKcQRrdRYyib6HNdq7-5" value="" style="edgeStyle=orthogonalEdgeStyle;rounded=0;orthogonalLoop=1;jettySize=auto;html=1;" parent="1" source="61NKcQRrdRYyib6HNdq7-4" target="N9SkhUXvSTuKwesoVMct-21" edge="1">
                    <mxGeometry relative="1" as="geometry"/>
                </mxCell>
                <mxCell id="61NKcQRrdRYyib6HNdq7-4" value="&lt;meta charset=&quot;utf-8&quot;&gt;&lt;span style=&quot;color: rgb(0, 0, 0); font-family: Helvetica; font-size: 13px; font-style: normal; font-variant-ligatures: normal; font-variant-caps: normal; font-weight: 400; letter-spacing: normal; orphans: 2; text-align: center; text-indent: 0px; text-transform: none; widows: 2; word-spacing: 0px; -webkit-text-stroke-width: 0px; background-color: rgb(251, 251, 251); text-decoration-thickness: initial; text-decoration-style: initial; text-decoration-color: initial; float: none; display: inline !important;&quot;&gt;$$\epsilon\sim N(0,I)$$&lt;/span&gt;" style="rounded=0;whiteSpace=wrap;html=1;fillColor=#fff2cc;strokeColor=#d6b656;" parent="1" vertex="1">
                    <mxGeometry x="613" y="260" width="90" height="40" as="geometry"/>
                </mxCell>
                <mxCell id="61NKcQRrdRYyib6HNdq7-6" value="&lt;h1&gt;Mixed Graph Learning via IAF based Graph VAE&lt;/h1&gt;" style="text;html=1;align=center;verticalAlign=middle;resizable=0;points=[];autosize=1;strokeColor=none;fillColor=none;" parent="1" vertex="1">
                    <mxGeometry x="134" y="120" width="570" height="70" as="geometry"/>
                </mxCell>
            </root>
        </mxGraphModel>
    </diagram>
</mxfile>